<?xml version="1.0" encoding="UTF-8" standalone="no"?>
<svg
   xmlns:dc="http://purl.org/dc/elements/1.1/"
   xmlns:cc="http://creativecommons.org/ns#"
   xmlns:rdf="http://www.w3.org/1999/02/22-rdf-syntax-ns#"
   xmlns:svg="http://www.w3.org/2000/svg"
   xmlns="http://www.w3.org/2000/svg"
   xmlns:sodipodi="http://sodipodi.sourceforge.net/DTD/sodipodi-0.dtd"
   xmlns:inkscape="http://www.inkscape.org/namespaces/inkscape"
   width="16px"
   height="16px"
   viewBox="0 0 16 16"
   version="1.1"
   id="svg7"
   sodipodi:docname="icon-facebook.svg"
   inkscape:version="0.92.1 r">
  <metadata
     id="metadata13">
    <rdf:RDF>
      <cc:Work
         rdf:about="">
        <dc:format>image/svg+xml</dc:format>
        <dc:type
           rdf:resource="http://purl.org/dc/dcmitype/StillImage" />
      </cc:Work>
    </rdf:RDF>
  </metadata>
  <defs
     id="defs11" />
  <sodipodi:namedview
     pagecolor="#ffffff"
     bordercolor="#666666"
     borderopacity="1"
     objecttolerance="10"
     gridtolerance="10"
     guidetolerance="10"
     inkscape:pageopacity="0"
     inkscape:pageshadow="2"
     inkscape:window-width="1918"
     inkscape:window-height="1054"
     id="namedview9"
     showgrid="false"
     inkscape:zoom="32"
     inkscape:cx="2.1596191"
     inkscape:cy="10.196972"
     inkscape:window-x="0"
     inkscape:window-y="0"
     inkscape:window-maximized="0"
     inkscape:current-layer="svg7" />
  <g
     id="Landing"
     style="opacity:1;fill:#828282;fill-opacity:1;fill-rule:evenodd;stroke:none;stroke-width:1"
     transform="matrix(0.97688766,0,0,0.97690467,0.25,0.24973078)">
    <g
       id="landing.1440px"
       transform="translate(-1344,-2438)"
       style="fill:#828282;fill-opacity:1">
      <g
         id="Group-3"
         transform="translate(80,2408)"
         style="fill:#828282;fill-opacity:1">
        <g
           id="Group-12"
           transform="translate(1224,30)"
           style="fill:#828282;fill-opacity:1">
          <path
             d="M 40.875862,0 C 40.39204,0 40,0.39203954 40,0.87566609 V 14.991051 c 0,0.483626 0.39204,0.875666 0.875862,0.875666 h 7.599174 V 9.7223451 H 46.407169 V 7.3277465 h 2.067867 V 5.5617054 c 0,-2.0494312 1.251624,-3.1653417 3.079834,-3.1653417 0.875666,0 1.628366,0.065307 1.847626,0.094333 v 2.1418028 l -1.267902,5.883e-4 c -0.994317,0 -1.186709,0.4724479 -1.186709,1.1657244 v 1.5289346 h 2.371065 l -0.30869,2.3945986 h -2.062375 v 6.1443716 h 4.043165 c 0.483627,0 0.875667,-0.39204 0.875667,-0.875666 V 0.87566609 C 55.866717,0.39203954 55.474677,0 54.99105,0 Z"
             id="Fill-1"
             inkscape:connector-curvature="0"
             style="fill:#828282;fill-opacity:1" />
        </g>
      </g>
    </g>
  </g>
</svg>
